<?xml version="1.0" encoding="utf-8"?>
<!-- Generator: Adobe Illustrator 13.0.0, SVG Export Plug-In . SVG Version: 6.00 Build 14948)  -->
<svg version="1.2" baseProfile="tiny" id="Layer_1" xmlns="http://www.w3.org/2000/svg" xmlns:xlink="http://www.w3.org/1999/xlink"
	 x="0px" y="0px" width="239.561px" height="239.559px" viewBox="0 0 239.561 239.559" xml:space="preserve">
<g>
	<path fill="#FFFFFF" d="M239.561,119.78c0,66.152-53.628,119.778-119.78,119.778S0,185.933,0,119.78C0,53.625,53.628,0,119.78,0
		S239.561,53.625,239.561,119.78z"/>
	<circle fill="#E6E529" stroke="#010101" stroke-width="2.5" cx="119.692" cy="119.617" r="106.272"/>
	
		<circle fill="none" stroke="#010101" stroke-width="6.25" stroke-linecap="round" stroke-linejoin="round" cx="119.692" cy="119.617" r="106.272"/>
	<path fill="none" stroke="#010101" stroke-width="6.25" stroke-linecap="round" stroke-linejoin="round" d="M213.428,169.707
		c-26.286,19.238-58.711,30.601-93.779,30.601c-34.741,0-66.885-11.147-93.04-30.063"/>
	<path fill="none" stroke="#010101" stroke-width="6.25" stroke-linecap="round" stroke-linejoin="round" d="M205.176,56.455
		c-25.339,14.06-54.507,22.068-85.537,22.068c-30.649,0-59.473-7.805-84.59-21.541"/>
	<circle fill="#FFFFFF" cx="86.118" cy="84.863" r="15.654"/>
	<path fill="none" stroke="#010101" stroke-width="6.25" stroke-linecap="round" stroke-linejoin="round" d="M223.942,106.179
		c-27.902,24.294-64.372,39.001-104.284,39.001c-39.673,0-75.942-14.524-103.774-38.564"/>
	<g>
		<line fill="none" stroke="#010101" stroke-width="6.25" x1="119.985" y1="14.131" x2="119.985" y2="224.292"/>
		<path fill="none" stroke="#010101" stroke-width="6.25" stroke-linecap="round" stroke-linejoin="round" d="M118.857,223.484
			c-35.833-13.609-61.924-55.472-61.924-105.003c0-49.39,25.94-91.152,61.609-104.885"/>
		<path fill="none" stroke="#010101" stroke-width="6.25" stroke-linecap="round" stroke-linejoin="round" d="M121.13,223.484
			c35.83-13.609,61.921-55.472,61.921-105.003c0-49.39-25.939-91.152-61.609-104.885"/>
	</g>
</g>
</svg>
