<?xml version="1.0" encoding="utf-8"?>
<!-- Generator: Adobe Illustrator 13.0.0, SVG Export Plug-In . SVG Version: 6.00 Build 14948)  -->
<svg version="1.2" baseProfile="tiny" id="Layer_1" xmlns="http://www.w3.org/2000/svg" xmlns:xlink="http://www.w3.org/1999/xlink"
	 x="0px" y="0px" width="240.847px" height="243.857px" viewBox="0 0 240.847 243.857" xml:space="preserve">
<g>
	<circle fill="#E6E529" cx="120.424" cy="121.362" r="120.424"/>
	<g>
		<path fill="#FFFFFF" stroke="#010101" stroke-width="6.25" stroke-linecap="round" stroke-linejoin="round" d="M96.929,198.548
			c0-48.004-13.918-50.459-26.589-64.781C33.674,92.332,35.706,3.125,119.807,3.125c84.095,0,86.384,89.207,49.72,130.642
			c-12.672,14.322-26.588,16.777-26.588,64.781"/>
		<g>
			<path fill="#4D4D4D" stroke="#010101" stroke-width="4.375" stroke-linecap="round" stroke-linejoin="round" d="M119.807,241.67
				c-11.438,0-23.105-1.419-23.105-9.858c0-0.879,2.141-1.084,2.141-2.717c0-2.596-3.076-1.224-3.076-3.561
				c0-2.336,3.047-1.511,3.047-3.955c0-2.836-2.769-1.271-2.769-3.713c0-2.1,2.612-0.584,2.612-3.247
				c0-2.151-3.049-1.841-3.049-4.316c0-1.694,0-6.468,0-8.308c0-4.17,1.191-4.17,5.369-4.17h18.379h19.537
				c4.177,0,5.371,0,5.371,4.17c0,1.84,0,3.981,0,5.676c0,2.476-3.055,2.168-3.055,4.316c0,2.666,2.615,1.152,2.615,3.247
				c0,2.444-2.767,0.879-2.767,3.714c0,2.443,3.042,1.618,3.042,3.955c0,2.341-3.081,0.964-3.081,3.562
				c0,1.634,2.146,1.839,2.146,2.715C143.164,237.622,132.673,241.67,119.807,241.67z"/>
			
				<line fill="#FFFFFF" stroke="#010101" stroke-width="3.3482" stroke-linecap="round" stroke-linejoin="round" x1="99.536" y1="214.331" x2="140.308" y2="212.407"/>
			
				<line fill="#FFFFFF" stroke="#010101" stroke-width="3.3482" stroke-linecap="round" stroke-linejoin="round" x1="99.536" y1="221.214" x2="140.308" y2="219.287"/>
			
				<line fill="#FFFFFF" stroke="#010101" stroke-width="3.3482" stroke-linecap="round" stroke-linejoin="round" x1="99.536" y1="228.174" x2="140.308" y2="226.247"/>
		</g>
	</g>
</g>
</svg>
