<?xml version="1.0" encoding="utf-8"?>
<!-- Generator: Adobe Illustrator 13.0.0, SVG Export Plug-In . SVG Version: 6.00 Build 14948)  -->
<svg version="1.2" baseProfile="tiny" id="Layer_1" xmlns="http://www.w3.org/2000/svg" xmlns:xlink="http://www.w3.org/1999/xlink"
	 x="0px" y="0px" width="245.85px" height="245.808px" viewBox="0 0 245.85 245.808" xml:space="preserve">
<g>
	<linearGradient id="SVGID_1_" gradientUnits="userSpaceOnUse" x1="195.2002" y1="220.0054" x2="50.6121" y2="75.4172">
		<stop  offset="0" style="stop-color:#000000"/>
		<stop  offset="0.111" style="stop-color:#070707"/>
		<stop  offset="0.2686" style="stop-color:#191919"/>
		<stop  offset="0.4541" style="stop-color:#383838"/>
		<stop  offset="0.6608" style="stop-color:#626262"/>
		<stop  offset="0.8824" style="stop-color:#989898"/>
		<stop  offset="1" style="stop-color:#B8B8B8"/>
	</linearGradient>
	<path fill="url(#SVGID_1_)" stroke="#010101" stroke-width="6.25" stroke-linecap="round" stroke-linejoin="round" d="
		M242.686,122.904c0,66.154-53.628,119.779-119.78,119.779S3.125,189.058,3.125,122.904"/>
	<path fill="none" stroke="#010101" stroke-width="6.25" stroke-linecap="round" stroke-linejoin="round" d="M3.125,122.904
		c0-66.153,53.628-119.779,119.78-119.779s119.78,53.625,119.78,119.779"/>
	<linearGradient id="SVGID_2_" gradientUnits="userSpaceOnUse" x1="123.2573" y1="158.1079" x2="123.2573" y2="87.5801">
		<stop  offset="0" style="stop-color:#565656"/>
		<stop  offset="0.2262" style="stop-color:#5A5A5A"/>
		<stop  offset="0.547" style="stop-color:#676767"/>
		<stop  offset="0.9228" style="stop-color:#7F7E7F"/>
		<stop  offset="1" style="stop-color:#848484"/>
	</linearGradient>
	
		<ellipse fill="url(#SVGID_2_)" stroke="#010101" stroke-width="6.25" stroke-linecap="round" stroke-linejoin="round" cx="123.257" cy="122.844" rx="119.468" ry="35.264"/>
	<g>
		
			<line fill="none" stroke="#E6E529" stroke-width="6.25" stroke-linecap="round" stroke-linejoin="round" x1="78.416" y1="35.301" x2="169.019" y2="125.906"/>
		
			<line fill="none" stroke="#E6E529" stroke-width="6.25" stroke-linecap="round" stroke-linejoin="round" x1="78.416" y1="125.904" x2="169.019" y2="35.296"/>
		
			<line fill="none" stroke="#E6E529" stroke-width="6.25" stroke-linecap="round" stroke-linejoin="round" x1="123.716" y1="16.531" x2="123.716" y2="144.666"/>
		
			<line fill="none" stroke="#E6E529" stroke-width="6.25" stroke-linecap="round" stroke-linejoin="round" x1="59.651" y1="80.596" x2="187.786" y2="80.596"/>
		<path fill="#E6E529" stroke="#010101" stroke-width="6.25" stroke-linecap="round" stroke-linejoin="round" d="M149.856,80.695
			c0,14.569-11.81,26.378-26.37,26.378c-14.575,0-26.384-11.809-26.384-26.378c0-14.569,11.809-26.381,26.384-26.381
			C138.047,54.314,149.856,66.125,149.856,80.695z"/>
	</g>
</g>
</svg>
